<mxfile host="app.diagrams.net" agent="Mozilla/5.0 (X11; Linux x86_64) AppleWebKit/537.36 (KHTML, like Gecko) Chrome/127.0.0.0 Safari/537.36" version="24.7.6">
  <diagram name="Page-1" id="52a04d89-c75d-2922-d76d-85b35f80e030">
    <mxGraphModel dx="1011" dy="1126" grid="1" gridSize="10" guides="1" tooltips="1" connect="1" arrows="1" fold="1" page="1" pageScale="1" pageWidth="1100" pageHeight="850" background="none" math="0" shadow="0">
      <root>
        <mxCell id="0" />
        <mxCell id="1" parent="0" />
        <mxCell id="innEtodZLq5B_fBlZ6to-5" value="Registration Details" style="edgeStyle=orthogonalEdgeStyle;rounded=0;orthogonalLoop=1;jettySize=auto;html=1;entryX=0;entryY=0.5;entryDx=0;entryDy=0;" edge="1" parent="1" source="innEtodZLq5B_fBlZ6to-1" target="innEtodZLq5B_fBlZ6to-2">
          <mxGeometry x="0.2627" relative="1" as="geometry">
            <Array as="points">
              <mxPoint x="130" y="416" />
            </Array>
            <mxPoint as="offset" />
          </mxGeometry>
        </mxCell>
        <mxCell id="innEtodZLq5B_fBlZ6to-1" value="Member" style="whiteSpace=wrap;html=1;rounded=0;shadow=0;comic=0;labelBackgroundColor=none;strokeWidth=1;fontFamily=Verdana;fontSize=12;align=center;" vertex="1" parent="1">
          <mxGeometry x="70" y="570" width="120" height="50" as="geometry" />
        </mxCell>
        <mxCell id="innEtodZLq5B_fBlZ6to-2" value="1.1" style="swimlane;html=1;fontStyle=0;childLayout=stackLayout;horizontal=1;startSize=26;fillColor=#e0e0e0;horizontalStack=0;resizeParent=1;resizeLast=0;collapsible=1;marginBottom=0;swimlaneFillColor=#ffffff;align=center;rounded=1;shadow=0;comic=0;labelBackgroundColor=none;strokeWidth=1;fontFamily=Verdana;fontSize=12" vertex="1" parent="1">
          <mxGeometry x="410" y="390" width="140" height="52" as="geometry" />
        </mxCell>
        <mxCell id="innEtodZLq5B_fBlZ6to-3" value="Member Registration" style="text;html=1;strokeColor=none;fillColor=none;spacingLeft=4;spacingRight=4;whiteSpace=wrap;overflow=hidden;rotatable=0;points=[[0,0.5],[1,0.5]];portConstraint=eastwest;align=center;" vertex="1" parent="innEtodZLq5B_fBlZ6to-2">
          <mxGeometry y="26" width="140" height="26" as="geometry" />
        </mxCell>
        <mxCell id="innEtodZLq5B_fBlZ6to-4" value="Member" style="html=1;rounded=0;shadow=0;comic=0;labelBackgroundColor=none;strokeWidth=2;fontFamily=Verdana;fontSize=12;align=center;shape=mxgraph.ios7ui.horLines;" vertex="1" parent="1">
          <mxGeometry x="690" y="425" width="135" height="50" as="geometry" />
        </mxCell>
        <mxCell id="innEtodZLq5B_fBlZ6to-6" value="New Member" style="edgeStyle=orthogonalEdgeStyle;rounded=0;orthogonalLoop=1;jettySize=auto;html=1;entryX=0.007;entryY=0.5;entryDx=0;entryDy=0;entryPerimeter=0;" edge="1" parent="1" source="innEtodZLq5B_fBlZ6to-2" target="innEtodZLq5B_fBlZ6to-4">
          <mxGeometry relative="1" as="geometry" />
        </mxCell>
        <mxCell id="innEtodZLq5B_fBlZ6to-10" value="Auth Status" style="edgeStyle=orthogonalEdgeStyle;rounded=0;orthogonalLoop=1;jettySize=auto;html=1;" edge="1" parent="1" source="innEtodZLq5B_fBlZ6to-7" target="innEtodZLq5B_fBlZ6to-4">
          <mxGeometry relative="1" as="geometry" />
        </mxCell>
        <mxCell id="innEtodZLq5B_fBlZ6to-7" value="1.2" style="swimlane;html=1;fontStyle=0;childLayout=stackLayout;horizontal=1;startSize=26;fillColor=#e0e0e0;horizontalStack=0;resizeParent=1;resizeLast=0;collapsible=1;marginBottom=0;swimlaneFillColor=#ffffff;align=center;rounded=1;shadow=0;comic=0;labelBackgroundColor=none;strokeWidth=1;fontFamily=Verdana;fontSize=12" vertex="1" parent="1">
          <mxGeometry x="410" y="480" width="140" height="52" as="geometry" />
        </mxCell>
        <mxCell id="innEtodZLq5B_fBlZ6to-8" value="Member Login" style="text;html=1;strokeColor=none;fillColor=none;spacingLeft=4;spacingRight=4;whiteSpace=wrap;overflow=hidden;rotatable=0;points=[[0,0.5],[1,0.5]];portConstraint=eastwest;align=center;" vertex="1" parent="innEtodZLq5B_fBlZ6to-7">
          <mxGeometry y="26" width="140" height="26" as="geometry" />
        </mxCell>
        <mxCell id="innEtodZLq5B_fBlZ6to-9" value="Login Credentials" style="edgeStyle=orthogonalEdgeStyle;rounded=0;orthogonalLoop=1;jettySize=auto;html=1;entryX=0;entryY=0.115;entryDx=0;entryDy=0;entryPerimeter=0;" edge="1" parent="1" source="innEtodZLq5B_fBlZ6to-1" target="innEtodZLq5B_fBlZ6to-8">
          <mxGeometry relative="1" as="geometry" />
        </mxCell>
        <mxCell id="innEtodZLq5B_fBlZ6to-11" value="1.3" style="swimlane;html=1;fontStyle=0;childLayout=stackLayout;horizontal=1;startSize=26;fillColor=#e0e0e0;horizontalStack=0;resizeParent=1;resizeLast=0;collapsible=1;marginBottom=0;swimlaneFillColor=#ffffff;align=center;rounded=1;shadow=0;comic=0;labelBackgroundColor=none;strokeWidth=1;fontFamily=Verdana;fontSize=12" vertex="1" parent="1">
          <mxGeometry x="410" y="570" width="140" height="52" as="geometry" />
        </mxCell>
        <mxCell id="innEtodZLq5B_fBlZ6to-12" value="Book Registration" style="text;html=1;strokeColor=none;fillColor=none;spacingLeft=4;spacingRight=4;whiteSpace=wrap;overflow=hidden;rotatable=0;points=[[0,0.5],[1,0.5]];portConstraint=eastwest;align=center;" vertex="1" parent="innEtodZLq5B_fBlZ6to-11">
          <mxGeometry y="26" width="140" height="26" as="geometry" />
        </mxCell>
        <mxCell id="innEtodZLq5B_fBlZ6to-13" value="Librarian" style="whiteSpace=wrap;html=1;rounded=0;shadow=0;comic=0;labelBackgroundColor=none;strokeWidth=1;fontFamily=Verdana;fontSize=12;align=center;" vertex="1" parent="1">
          <mxGeometry x="210" y="571" width="120" height="50" as="geometry" />
        </mxCell>
        <mxCell id="innEtodZLq5B_fBlZ6to-14" value="Book&amp;nbsp;&lt;div&gt;Details&lt;/div&gt;" style="edgeStyle=orthogonalEdgeStyle;rounded=0;orthogonalLoop=1;jettySize=auto;html=1;entryX=-0.029;entryY=0.077;entryDx=0;entryDy=0;entryPerimeter=0;" edge="1" parent="1" source="innEtodZLq5B_fBlZ6to-13" target="innEtodZLq5B_fBlZ6to-12">
          <mxGeometry relative="1" as="geometry" />
        </mxCell>
        <mxCell id="innEtodZLq5B_fBlZ6to-15" value="Book" style="html=1;rounded=0;shadow=0;comic=0;labelBackgroundColor=none;strokeWidth=2;fontFamily=Verdana;fontSize=12;align=center;shape=mxgraph.ios7ui.horLines;" vertex="1" parent="1">
          <mxGeometry x="680" y="570" width="135" height="50" as="geometry" />
        </mxCell>
        <mxCell id="innEtodZLq5B_fBlZ6to-16" value="New Book" style="edgeStyle=orthogonalEdgeStyle;rounded=0;orthogonalLoop=1;jettySize=auto;html=1;entryX=0;entryY=0.58;entryDx=0;entryDy=0;entryPerimeter=0;exitX=1;exitY=0.5;exitDx=0;exitDy=0;" edge="1" parent="1" source="innEtodZLq5B_fBlZ6to-11" target="innEtodZLq5B_fBlZ6to-15">
          <mxGeometry relative="1" as="geometry" />
        </mxCell>
        <mxCell id="innEtodZLq5B_fBlZ6to-23" value="Borrowing Record&lt;div&gt;Update&lt;/div&gt;" style="edgeStyle=orthogonalEdgeStyle;rounded=0;orthogonalLoop=1;jettySize=auto;html=1;" edge="1" parent="1" source="innEtodZLq5B_fBlZ6to-18" target="innEtodZLq5B_fBlZ6to-22">
          <mxGeometry relative="1" as="geometry">
            <Array as="points">
              <mxPoint x="758" y="730" />
            </Array>
          </mxGeometry>
        </mxCell>
        <mxCell id="innEtodZLq5B_fBlZ6to-24" value="Book Status" style="edgeStyle=orthogonalEdgeStyle;rounded=0;orthogonalLoop=1;jettySize=auto;html=1;" edge="1" parent="1" source="innEtodZLq5B_fBlZ6to-18" target="innEtodZLq5B_fBlZ6to-15">
          <mxGeometry relative="1" as="geometry">
            <Array as="points">
              <mxPoint x="750" y="680" />
            </Array>
          </mxGeometry>
        </mxCell>
        <mxCell id="innEtodZLq5B_fBlZ6to-18" value="1.4" style="swimlane;html=1;fontStyle=0;childLayout=stackLayout;horizontal=1;startSize=26;fillColor=#e0e0e0;horizontalStack=0;resizeParent=1;resizeLast=0;collapsible=1;marginBottom=0;swimlaneFillColor=#ffffff;align=center;rounded=1;shadow=0;comic=0;labelBackgroundColor=none;strokeWidth=1;fontFamily=Verdana;fontSize=12" vertex="1" parent="1">
          <mxGeometry x="410" y="680" width="140" height="52" as="geometry" />
        </mxCell>
        <mxCell id="innEtodZLq5B_fBlZ6to-19" value="Book Borrowing" style="text;html=1;strokeColor=none;fillColor=none;spacingLeft=4;spacingRight=4;whiteSpace=wrap;overflow=hidden;rotatable=0;points=[[0,0.5],[1,0.5]];portConstraint=eastwest;align=center;" vertex="1" parent="innEtodZLq5B_fBlZ6to-18">
          <mxGeometry y="26" width="140" height="26" as="geometry" />
        </mxCell>
        <mxCell id="innEtodZLq5B_fBlZ6to-21" value="Borrowing Request" style="edgeStyle=orthogonalEdgeStyle;rounded=0;orthogonalLoop=1;jettySize=auto;html=1;entryX=0;entryY=0.135;entryDx=0;entryDy=0;entryPerimeter=0;" edge="1" parent="1" source="innEtodZLq5B_fBlZ6to-1" target="innEtodZLq5B_fBlZ6to-18">
          <mxGeometry relative="1" as="geometry">
            <Array as="points">
              <mxPoint x="130" y="687" />
            </Array>
          </mxGeometry>
        </mxCell>
        <mxCell id="innEtodZLq5B_fBlZ6to-22" value="Borrowing Records" style="html=1;rounded=0;shadow=0;comic=0;labelBackgroundColor=none;strokeWidth=2;fontFamily=Verdana;fontSize=12;align=center;shape=mxgraph.ios7ui.horLines;" vertex="1" parent="1">
          <mxGeometry x="680" y="800" width="135" height="50" as="geometry" />
        </mxCell>
        <mxCell id="innEtodZLq5B_fBlZ6to-29" value="Book Status" style="edgeStyle=orthogonalEdgeStyle;rounded=0;orthogonalLoop=1;jettySize=auto;html=1;exitX=1;exitY=0.25;exitDx=0;exitDy=0;" edge="1" parent="1" source="innEtodZLq5B_fBlZ6to-25" target="innEtodZLq5B_fBlZ6to-15">
          <mxGeometry x="-0.0999" relative="1" as="geometry">
            <Array as="points">
              <mxPoint x="480" y="811" />
              <mxPoint x="480" y="770" />
              <mxPoint x="850" y="770" />
              <mxPoint x="850" y="595" />
            </Array>
            <mxPoint as="offset" />
          </mxGeometry>
        </mxCell>
        <mxCell id="innEtodZLq5B_fBlZ6to-25" value="1.5" style="swimlane;html=1;fontStyle=0;childLayout=stackLayout;horizontal=1;startSize=26;fillColor=#e0e0e0;horizontalStack=0;resizeParent=1;resizeLast=0;collapsible=1;marginBottom=0;swimlaneFillColor=#ffffff;align=center;rounded=1;shadow=0;comic=0;labelBackgroundColor=none;strokeWidth=1;fontFamily=Verdana;fontSize=12" vertex="1" parent="1">
          <mxGeometry x="410" y="798" width="140" height="52" as="geometry" />
        </mxCell>
        <mxCell id="innEtodZLq5B_fBlZ6to-26" value="Book Return" style="text;html=1;strokeColor=none;fillColor=none;spacingLeft=4;spacingRight=4;whiteSpace=wrap;overflow=hidden;rotatable=0;points=[[0,0.5],[1,0.5]];portConstraint=eastwest;align=center;" vertex="1" parent="innEtodZLq5B_fBlZ6to-25">
          <mxGeometry y="26" width="140" height="26" as="geometry" />
        </mxCell>
        <mxCell id="innEtodZLq5B_fBlZ6to-27" value="Return Request" style="edgeStyle=orthogonalEdgeStyle;rounded=0;orthogonalLoop=1;jettySize=auto;html=1;entryX=0.057;entryY=0.077;entryDx=0;entryDy=0;entryPerimeter=0;" edge="1" parent="1" source="innEtodZLq5B_fBlZ6to-1" target="innEtodZLq5B_fBlZ6to-26">
          <mxGeometry x="0.1984" y="6" relative="1" as="geometry">
            <mxPoint as="offset" />
          </mxGeometry>
        </mxCell>
        <mxCell id="innEtodZLq5B_fBlZ6to-28" value="Borrowing Record&lt;div&gt;Update&lt;/div&gt;" style="edgeStyle=orthogonalEdgeStyle;rounded=0;orthogonalLoop=1;jettySize=auto;html=1;exitX=1;exitY=0;exitDx=0;exitDy=0;exitPerimeter=0;" edge="1" parent="1" source="innEtodZLq5B_fBlZ6to-26" target="innEtodZLq5B_fBlZ6to-22">
          <mxGeometry relative="1" as="geometry">
            <Array as="points">
              <mxPoint x="615" y="824" />
              <mxPoint x="615" y="820" />
            </Array>
          </mxGeometry>
        </mxCell>
      </root>
    </mxGraphModel>
  </diagram>
</mxfile>
